<?xml version="1.0" encoding="UTF-8"?>
<svg width="176px" height="41px" viewBox="0 0 176 41" version="1.1" xmlns="http://www.w3.org/2000/svg" xmlns:xlink="http://www.w3.org/1999/xlink">
    <!-- Generator: Sketch 49.2 (51160) - http://www.bohemiancoding.com/sketch -->
    <title>Stringify-logo-Copy1</title>
    <desc>Created with Sketch.</desc>
    <defs></defs>
    <g id="Page-1" stroke="none" stroke-width="1" fill="none" fill-rule="evenodd">
        <g id="Stringify-logo-Copy1" fill-rule="nonzero">
            <g id="Imported-Layers-+-Imported-Layers-Copy-11" transform="translate(49.404639, 7.637877)" fill="#414141">
                <g id="Imported-Layers" transform="translate(0.151400, 0.179293)">
                    <path d="M44.6280932,5.63445029 C44.6280932,5.24713387 44.9376485,4.93023861 45.3159939,4.93023861 L46.1235893,4.93023861 C46.5019347,4.93023861 46.81149,5.24713387 46.81149,5.63445029 L46.81149,21.2433021 C46.81149,21.6306186 46.5019347,21.9475138 46.1235893,21.9475138 L45.3159939,21.9475138 C44.9376485,21.9475138 44.6280932,21.6306186 44.6280932,21.2433021 L44.6280932,5.63445029 Z" id="Fill-6-Copy"></path>
                    <path d="M27.1609195,19.7845695 L27.1609195,19.7816973 C26.351095,19.7816973 25.594654,19.6135505 24.8922944,19.2761992 C24.1895858,18.9395529 23.5643357,18.4943338 23.0168929,17.9408944 C22.4684034,17.3874549 22.0277277,16.7437731 21.6948657,16.0094965 C21.3609571,15.2759249 21.194875,14.4514059 21.194875,13.536997 L21.194875,8.06922695 C21.194875,7.68146684 21.5088957,7.36420856 21.8926988,7.36420856 L26.3200419,7.36420856 C26.7038449,7.36420856 27.0178656,7.04695029 27.0178656,6.65919018 L27.0178656,5.90411549 C27.0178656,5.51635538 26.7038449,5.19909711 26.3200419,5.19909711 L21.8926988,5.19909711 C21.5088957,5.19909711 21.194875,4.88183884 21.194875,4.49407872 L21.194875,1.50021816 C21.194875,1.11245805 20.8808543,0.795199776 20.4970512,0.795199776 L19.7489841,0.795199776 C19.365181,0.795199776 19.0511603,1.11245805 19.0511603,1.50021816 L19.0511603,14.0784511 C19.0986123,15.18533 19.3421528,16.2139518 19.7831775,17.1646691 C20.2238532,18.1153864 20.8072339,18.9458981 21.5340174,19.6551465 C22.2604519,20.3651001 23.1058655,20.9248847 24.0709558,21.3334428 C25.0349993,21.743411 26.0653362,21.9475138 27.1609195,21.9475138 C27.5467119,21.9475129 27.8627256,21.6302624 27.8627256,21.2425118 L27.8627256,20.4895706 C27.8627256,20.10182 27.5467119,19.7845695 27.1609195,19.7845695 Z" id="Fill-4"></path>
                    <path d="M40.0273645,5.08927857 C38.932152,5.08927857 37.8958857,5.28809957 36.9203095,5.68644912 C35.9436869,6.08515245 35.0811199,6.62854935 34.3305157,7.31663983 C33.5809578,8.00508408 32.9792886,8.82619359 32.5272518,9.78032214 C32.0748663,10.7344507 31.8247812,11.7667633 31.7773452,12.87726 L31.7616495,21.0809258 C31.7609519,21.4700772 32.0741687,21.7884739 32.4578419,21.7884739 L33.0797412,21.7884739 C33.4634143,21.7884739 33.7773287,21.4700772 33.7773287,21.0809258 L33.7773287,13.4206569 C33.7773287,12.5754907 33.9499816,11.7904661 34.2952875,11.0662907 C34.6402445,10.3414077 35.0863518,9.70213808 35.6343068,9.14600531 C36.1822618,8.51876397 36.8425285,8.0539049 37.6165019,7.75178188 C38.3773819,7.45498393 39.167278,7.30362694 39.9861903,7.29872063 C39.9998175,7.29952568 40.013546,7.29993388 40.0273645,7.29993388 C40.4133754,7.29993388 40.7291705,6.98139565 40.7291705,6.59207115 L40.7291705,5.7971413 C40.7291705,5.4078168 40.4133754,5.08927857 40.0273645,5.08927857 Z" id="Fill-5"></path>
                    <path d="M90.6353812,5.63445029 C90.6353812,5.24713387 90.9449365,4.93023861 91.3232818,4.93023861 L92.1308772,4.93023861 C92.5092226,4.93023861 92.8187779,5.24713387 92.8187779,5.63445029 L92.8187779,21.2433021 C92.8187779,21.6306186 92.5092226,21.9475138 92.1308772,21.9475138 L91.3232818,21.9475138 C90.9449365,21.9475138 90.6353812,21.6306186 90.6353812,21.2433021 L90.6353812,5.63445029 Z" id="Fill-7"></path>
                    <path d="M104.795034,2.13040787 C103.914969,2.13444245 103.132364,2.30295031 102.44722,2.63559153 C101.753672,2.97301776 101.136917,3.41833577 100.596266,3.97154555 C100.125866,4.40452299 99.737768,4.94045598 99.432662,5.57828676 C99.1265229,6.21576496 98.9267921,6.94456331 98.8331253,7.76221371 C99.6320485,6.94456331 100.543234,6.2820514 101.565649,5.77644094 C102.588409,5.27118306 103.675564,5.01837782 104.82746,5.01837782 L104.82746,5.02566356 C105.213471,5.02566356 105.529266,5.34313001 105.529266,5.73114456 L105.529266,6.51493396 C105.529266,6.90294852 105.213471,7.22041497 104.82746,7.22041497 L104.82746,7.22063932 C103.934181,7.22063932 103.140768,7.37718817 102.44722,7.69028586 C101.753672,8.00303097 101.136917,8.436361 100.596266,8.98992337 C100.054927,9.54348574 99.6499554,10.145 99.37963,10.7948188 C99.1093047,11.4446375 98.9267921,12.1187848 98.8331253,12.816908 L98.8331253,21.2423388 C98.8331253,21.6301851 98.5231981,21.9475138 98.1443984,21.9475138 L97.4064275,21.9475138 C97.0276277,21.9475138 96.7177006,21.6301851 96.7177006,21.2423388 L96.7177006,7.90677458 C96.764534,6.8236258 97.0048997,5.80676346 97.4401751,4.85583499 C97.8751061,3.9052591 98.4570804,3.06856897 99.1860978,2.34682237 C99.9144265,1.62437059 100.760527,1.05282626 101.724745,0.631836792 C102.688274,0.210847322 103.722398,0 104.82746,0 C105.213471,0 105.529266,0.308264514 105.529266,0.685032253 L105.529266,1.44610309 C105.529266,1.82287083 105.213471,2.13113534 104.82746,2.13113534 C104.816594,2.13113534 104.805783,2.13089107 104.795034,2.13040787 Z" id="Fill-8"></path>
                    <path d="M117.350502,27.9369044 C118.165352,27.9329795 118.922802,27.7636787 119.622852,27.4303669 C120.330517,27.0920394 120.967658,26.6455319 121.534274,26.0908445 C122.07669,25.5114101 122.512975,24.8598557 122.843817,24.1358278 C123.174315,23.4117998 123.339563,22.6273184 123.339563,21.7827371 L123.339563,19.3214664 C122.631898,20.0695343 121.75207,20.6913922 120.702154,21.1856261 C119.651891,21.6805671 118.525228,21.927684 117.321471,21.927684 C116.16473,21.927684 115.079206,21.7046071 114.064897,21.2580996 C113.049897,20.8115922 112.171106,20.2081178 111.427833,19.4480299 C110.684214,18.6875884 110.100313,17.7949271 109.675437,16.7693387 C109.25955,15.7653156 109.050396,14.6969502 109.041408,13.5653031 L109.038296,13.5653031 L109.038296,5.72543839 C109.038296,5.33179651 109.350524,5.00975859 109.732137,5.00975859 L110.582438,5.00975859 C110.96405,5.00975859 111.276278,5.33179651 111.276278,5.72543839 C111.276278,5.7450079 111.275506,5.76440044 111.273993,5.78358524 L111.273993,13.5653031 C111.289204,15.292647 111.814681,16.694037 112.861486,17.7645236 C113.427411,18.367998 114.106036,18.8452625 114.896672,19.1949029 C115.686961,19.5448969 116.495228,19.7195403 117.321471,19.7195403 C118.147368,19.7195403 118.914495,19.5448969 119.622852,19.1949029 C120.330517,18.8452625 120.967658,18.367998 121.534274,17.7645236 C122.07669,17.2098362 122.512975,16.5699482 122.843817,15.8462738 C123.174315,15.1218924 123.339563,14.3377645 123.339563,13.4928296 L123.339563,5.73043028 C123.339552,5.72876761 123.339547,5.72710364 123.339547,5.72543839 C123.339547,5.33179651 123.650687,5.00975859 124.030969,5.00975859 L124.878308,5.00975859 C125.25859,5.00975859 125.569731,5.33179651 125.569731,5.72543839 C125.569731,5.72673544 125.569727,5.72803172 125.56972,5.72932721 L125.569729,21.7827371 C125.569729,22.9652924 125.357464,24.0690107 124.932588,25.0949526 C124.507712,26.1208945 123.923811,27.0139094 123.180192,27.7739973 C122.436919,28.5340852 121.563313,29.1315496 120.560413,29.5660371 C119.557513,30.000171 118.47752,30.2175915 117.321471,30.2175915 C117.315726,30.2175192 117.309965,30.2175906 117.304189,30.2175906 C116.918081,30.2175906 116.602206,29.8991902 116.602206,29.5100341 L116.602206,28.6429236 C116.602206,28.2537676 116.918081,27.9353672 117.304189,27.9353672 C117.319746,27.9353672 117.335189,27.935885 117.350502,27.9369044 Z" id="Fill-9"></path>
                    <path d="M66.7711914,13.5182195 C66.756234,12.4087089 66.5506566,11.3769595 66.1509807,10.4236782 C65.7353039,9.43469741 65.1589219,8.56624647 64.4232261,7.81797189 C63.6868346,7.07040423 62.832523,6.4847212 61.8589001,6.0626901 C60.8849292,5.64030554 59.8285187,5.42928998 58.6889729,5.42928998 C57.5490792,5.42928998 56.4683194,5.65267663 55.4477371,6.09874301 C54.4264592,6.5455163 53.5596251,7.16654532 52.8475829,7.96289044 L52.8475829,5.95523829 C52.8475829,5.56643242 52.5345209,5.24831852 52.1518895,5.24831852 L51.4061061,5.24831852 C51.0234747,5.24831852 50.7104127,5.56643242 50.7104127,5.95523829 L50.7104127,21.0815541 C50.7104127,21.47036 51.0234747,21.7884739 51.4061061,21.7884739 L52.1518895,21.7884739 C52.5345209,21.7884739 52.8475829,21.47036 52.8475829,21.0815541 L52.8475829,13.6451116 C52.8475829,12.8006959 52.9902001,12.0227307 53.2747387,11.3101556 C53.5596251,10.5989943 54.0104345,9.96559416 54.6282103,9.41030868 C55.1743296,8.87976539 55.7973231,8.44536319 56.4982342,8.10710208 C57.1984497,7.76990135 57.9282321,7.60059406 58.6889729,7.60059406 C59.5196309,7.60059406 60.3148085,7.76990135 61.0752014,8.10710208 C61.8348986,8.44536319 62.4759801,8.87976539 62.9984459,9.41030868 C64.114686,10.4721022 64.6726322,11.8841744 64.6726322,13.6451116 C64.6733279,13.6451116 64.6736757,13.9632255 64.6736757,14.3520313 L64.6736757,21.0660019 C64.6736757,21.4548077 64.9867378,21.7729216 65.3693692,21.7729216 L66.0782808,21.7729216 C66.4609122,21.7729216 66.7739742,21.4548077 66.7739742,21.0660019 L66.7739742,14.2251392 C66.7739742,13.8363334 66.7732785,13.5182195 66.7725828,13.5182195 L66.7711914,13.5182195" id="Fill-10"></path>
                    <path d="M78.4946598,27.8642022 C78.4867772,27.8639362 78.4788628,27.8638021 78.4709188,27.8638021 C78.0848107,27.8638021 77.7689362,28.1799837 77.7689362,28.5664279 L77.7689362,29.4274957 C77.7689362,29.8139399 78.0848107,30.1301215 78.4709188,30.1301215 C78.4788628,30.1301215 78.4867772,30.1299874 78.4946598,30.1297213 L78.4946598,30.1380715 C79.6498035,30.1380715 80.728951,29.9208687 81.7310658,29.4871694 C82.7331807,29.0531169 83.6061018,28.4562506 84.3487929,27.6969237 C85.0918294,26.9375968 85.6752738,26.0454759 86.0998167,25.0205611 C86.5243597,23.9956464 86.7064054,22.893033 86.7064054,21.7116616 L86.7364585,13.4300535 L86.7340404,13.4300535 C86.7343858,13.3986209 86.7364585,13.3671883 86.7364585,13.3357557 C86.7364585,8.64947237 83.0706733,4.85071863 78.5488935,4.85071863 C74.0267682,4.85071863 70.3609831,8.64947237 70.3609831,13.3357557 C70.3609831,18.022039 74.0267682,21.8207927 78.5488935,21.8207927 C80.8989063,21.8207927 83.0160942,20.7930526 84.5094214,19.1497278 L84.5080397,19.252855 L84.5080397,21.7116616 C84.5080397,22.5553974 84.3429205,23.3390934 84.012682,24.0623965 C83.6820981,24.7856995 83.2461557,25.4366017 82.7041639,26.015456 C82.1379915,26.5695881 81.5013497,27.0156485 80.7942387,27.3536373 C80.0864368,27.6905666 79.3199105,27.8597375 78.4946598,27.8597375 L78.4946598,27.8642022 Z M78.5488935,19.5597643 C75.231655,19.5597643 72.5424223,16.7732111 72.5424223,13.3357557 C72.5424223,9.8983003 75.231655,7.11139386 78.5488935,7.11139386 C81.8657865,7.11139386 84.5546738,9.8983003 84.5546738,13.3357557 C84.5546738,16.7732111 81.8657865,19.5597643 78.5488935,19.5597643 Z" id="Fill-18"></path>
                    <path d="M0.775002777,19.6256458 C1.33563448,19.6088315 6.01491689,19.292353 6.70427467,13.4260264 C7.23407736,7.02353064 12.1012445,5.28559523 14.6716782,5.25232032 C14.6801458,5.25199467 14.6886519,5.25183038 14.6971935,5.25183038 C14.7014115,5.25183038 14.7056208,5.25187045 14.7098211,5.25195022 C14.7222414,5.25187021 14.7346063,5.25183038 14.7469151,5.25183038 L14.7469151,5.25369632 C15.0965044,5.28001985 15.3745653,5.58153402 15.3745653,5.94641305 L15.3745653,6.71184314 C15.3745653,7.07672217 15.0965044,7.37823634 14.7469151,7.40455986 C14.746708,7.40469689 14.7458383,7.40471459 14.7443203,7.4047501 C14.7290085,7.40584228 14.7135608,7.4064066 14.6979944,7.40642532 C14.4367651,7.41836767 13.1713608,7.51098611 11.8950744,8.21839293 C10.0546937,9.23873486 9.01564835,11.0574996 8.80688571,13.6232879 L8.80313956,13.6611427 C8.05833711,20.0888106 3.23159493,21.7797721 0.752325677,21.7797721 C0.750608607,21.7797721 0.748899486,21.7797721 0.747197101,21.7797709 C0.745518402,21.7797655 0.743814363,21.7797721 0.742108908,21.7797721 C0.369537402,21.7797721 0.0647371307,21.4672099 0.0647371307,21.0851894 L0.0647371307,20.3194121 C0.0647371307,19.9373916 0.369537402,19.6248294 0.742108908,19.6248294 C0.753134751,19.6248294 0.764101431,19.6251036 0.775002777,19.6256458 Z" id="Fill-1"></path>
                    <path d="M0.752325677,21.7797721 C0.741087231,21.7797721 0.730189344,21.7797721 0.719291457,21.7794248 L0.727124313,19.6265659 C0.941335901,19.625524 5.98637638,19.5352282 6.70427467,13.4260264 C7.2392928,6.96050373 12.1974907,5.25183038 14.7469151,5.25183038 L14.7469151,7.40468934 C14.7373795,7.40503664 13.3230381,7.42691599 11.8950744,8.21839293 C10.0546937,9.23873486 9.01564835,11.0574996 8.80688571,13.6232879 L8.80313956,13.6611427 C8.05833711,20.0888106 3.23159493,21.7797721 0.752325677,21.7797721" id="Path-Copy"></path>
                </g>
            </g>
            <g id="Rectangle-135-Copy-25-+-Imported-Layers-Copy">
                <rect id="Rectangle-135-Copy-25" fill="#2C72B4" x="0" y="0" width="39.3830576" height="40.1616049" rx="19.6915288"></rect>
                <path d="M14.1665675,29.1099402 L14.1665675,26.5167718 C14.1665675,26.5167718 14.4086741,26.0833732 15.1347107,26.0833732 C15.8256142,26.0833732 16.1498869,26.5167718 16.1498869,26.5167718 L16.1498869,29.1099402 C16.1498869,31.1412795 17.7705423,32.7938284 19.7623617,32.7938284 C21.7543227,32.7938284 23.3748364,31.1412795 23.3748364,29.1099402 C23.3748364,27.4358658 22.7342242,26.2310177 19.5532631,25.4040931 C14.7505134,24.5255941 9.91659724,21.0920659 9.91659724,15.3856508 C9.91659724,9.84941689 14.3334497,5.34524957 19.7623617,5.34524957 C25.1912736,5.34524957 29.6081261,9.84941689 29.6081261,15.3856508 C29.6081261,18.5896223 28.0887617,21.6280355 25.5438795,23.5134639 C25.5438795,23.5134639 25.0364331,23.5347004 24.6263109,23.0495829 C24.1836057,22.5258929 24.3782543,21.8772397 24.3782543,21.8772397 C26.4111568,20.371035 27.6248066,17.9442917 27.6248066,15.3856508 C27.6248066,10.964696 24.0977563,7.36777643 19.7623617,7.36777643 C15.426967,7.36777643 11.8999167,10.964696 11.8999167,15.3856508 C11.8999167,19.9348916 15.9354051,22.6982411 19.9349104,23.418983 L20.0053183,23.4342964 C22.4975008,24.0764487 25.3581558,25.3019555 25.3581558,29.1099402 C25.3581558,32.2565586 22.8478401,34.8163553 19.7623617,34.8163553 C16.6768833,34.8163553 14.1665675,32.2565586 14.1665675,29.1099402 Z" id="Imported-Layers-Copy" fill="#FFFFFF"></path>
            </g>
        </g>
    </g>
</svg>